<svg xmlns="http://www.w3.org/2000/svg" viewBox="0 0 900 500" font-family="'Inter', 'Helvetica Neue', sans-serif">
  <rect width="900" height="500" fill="#0d1117"/>

  <defs>
    <marker id="arrow" viewBox="0 0 10 10" refX="9" refY="5" markerWidth="8" markerHeight="8" orient="auto-start-reverse">
      <path d="M 0 0 L 10 5 L 0 10 z" fill="#58a6ff"/>
    </marker>
  </defs>

  <!-- Title -->
  <text x="450" y="35" text-anchor="middle" fill="#c9d1d9" font-size="18" font-weight="700">plans/</text>

  <!-- Column 1: Icebox -->
  <rect x="30" y="55" width="260" height="420" rx="10" fill="#161b22" stroke="#8b949e" stroke-width="1.5"/>
  <text x="160" y="85" text-anchor="middle" fill="#8b949e" font-size="16" font-weight="700">work-items-icebox/</text>
  <text x="160" y="105" text-anchor="middle" fill="#484f58" font-size="12">parked / low priority</text>

  <!-- Icebox items -->
  <rect x="50" y="125" width="220" height="42" rx="5" fill="#0d1117" stroke="#484f58" stroke-width="1"/>
  <text x="65" y="143" fill="#484f58" font-size="11">04</text>
  <text x="90" y="143" fill="#8b949e" font-size="12">gpu-particles</text>
  <text x="245" y="143" text-anchor="end" fill="#484f58" font-size="10">-feature</text>

  <rect x="50" y="177" width="220" height="42" rx="5" fill="#0d1117" stroke="#484f58" stroke-width="1"/>
  <text x="65" y="195" fill="#484f58" font-size="11">05</text>
  <text x="90" y="195" fill="#8b949e" font-size="12">sixel-image-support</text>
  <text x="245" y="195" text-anchor="end" fill="#484f58" font-size="10">-feature</text>

  <rect x="50" y="229" width="220" height="42" rx="5" fill="#0d1117" stroke="#484f58" stroke-width="1"/>
  <text x="65" y="247" fill="#484f58" font-size="11">06</text>
  <text x="90" y="247" fill="#8b949e" font-size="12">lua-scripting</text>
  <text x="245" y="247" text-anchor="end" fill="#484f58" font-size="10">-feature</text>

  <text x="160" y="300" text-anchor="middle" fill="#484f58" font-size="12">...</text>

  <!-- Column 2: Active -->
  <rect x="320" y="55" width="260" height="420" rx="10" fill="#161b22" stroke="#f0883e" stroke-width="2"/>
  <text x="450" y="85" text-anchor="middle" fill="#f0883e" font-size="16" font-weight="700">work-items/</text>
  <text x="450" y="105" text-anchor="middle" fill="#8b949e" font-size="12">active / in progress</text>

  <!-- Active items -->
  <rect x="340" y="125" width="220" height="42" rx="5" fill="#0d1117" stroke="#f0883e" stroke-width="1.5"/>
  <text x="355" y="143" fill="#f0883e" font-size="11">00</text>
  <text x="380" y="143" fill="#c9d1d9" font-size="12">rpc-shutdown</text>
  <text x="535" y="143" text-anchor="end" fill="#f47067" font-size="10">-bug</text>

  <rect x="340" y="177" width="220" height="42" rx="5" fill="#0d1117" stroke="#f0883e" stroke-width="1.5"/>
  <text x="355" y="195" fill="#f0883e" font-size="11">01</text>
  <text x="380" y="195" fill="#c9d1d9" font-size="12">mouse-modifier-drag</text>
  <text x="535" y="195" text-anchor="end" fill="#f47067" font-size="10">-bug</text>

  <rect x="340" y="229" width="220" height="42" rx="5" fill="#0d1117" stroke="#f0883e" stroke-width="1.5"/>
  <text x="355" y="247" fill="#f0883e" font-size="11">02</text>
  <text x="380" y="247" fill="#c9d1d9" font-size="12">render-pass-refactor</text>
  <text x="535" y="247" text-anchor="end" fill="#58a6ff" font-size="10">-refactor</text>

  <rect x="340" y="281" width="220" height="42" rx="5" fill="#0d1117" stroke="#f0883e" stroke-width="1.5"/>
  <text x="355" y="299" fill="#f0883e" font-size="11">03</text>
  <text x="380" y="299" fill="#c9d1d9" font-size="12">chord-keybindings</text>
  <text x="535" y="299" text-anchor="end" fill="#7ee787" font-size="10">-feature</text>

  <!-- Column 3: Complete -->
  <rect x="610" y="55" width="260" height="420" rx="10" fill="#161b22" stroke="#7ee787" stroke-width="1.5"/>
  <text x="740" y="85" text-anchor="middle" fill="#7ee787" font-size="16" font-weight="700">work-items-complete/</text>
  <text x="740" y="105" text-anchor="middle" fill="#8b949e" font-size="12">done / verified</text>

  <!-- Complete items -->
  <rect x="630" y="125" width="220" height="42" rx="5" fill="#0d1117" stroke="#2ea04370" stroke-width="1"/>
  <text x="645" y="143" fill="#2ea043" font-size="11">00</text>
  <text x="670" y="143" fill="#7ee787" font-size="12">pty-eintr-fix</text>
  <text x="825" y="143" text-anchor="end" fill="#2ea043" font-size="10">-bug</text>

  <rect x="630" y="177" width="220" height="42" rx="5" fill="#0d1117" stroke="#2ea04370" stroke-width="1"/>
  <text x="645" y="195" fill="#2ea043" font-size="11">01</text>
  <text x="670" y="195" fill="#7ee787" font-size="12">font-fallback-chain</text>
  <text x="825" y="195" text-anchor="end" fill="#2ea043" font-size="10">-feature</text>

  <rect x="630" y="229" width="220" height="42" rx="5" fill="#0d1117" stroke="#2ea04370" stroke-width="1"/>
  <text x="645" y="247" fill="#2ea043" font-size="11">02</text>
  <text x="670" y="247" fill="#7ee787" font-size="12">metal-semaphore</text>
  <text x="825" y="247" text-anchor="end" fill="#2ea043" font-size="10">-bug</text>

  <rect x="630" y="281" width="220" height="42" rx="5" fill="#0d1117" stroke="#2ea04370" stroke-width="1"/>
  <text x="645" y="299" fill="#2ea043" font-size="11">03</text>
  <text x="670" y="299" fill="#7ee787" font-size="12">swapchain-readback</text>
  <text x="825" y="299" text-anchor="end" fill="#2ea043" font-size="10">-feature</text>

  <text x="740" y="350" text-anchor="middle" fill="#2ea043" font-size="12">...</text>

  <!-- Flow arrows between columns -->
  <line x1="290" y1="260" x2="318" y2="260" stroke="#58a6ff" stroke-width="2" marker-end="url(#arrow)"/>
  <line x1="580" y1="260" x2="608" y2="260" stroke="#58a6ff" stroke-width="2" marker-end="url(#arrow)"/>

  <!-- Bottom annotation -->
  <text x="450" y="490" text-anchor="middle" fill="#8b949e" font-size="13">Each .md file is a complete agent spec: investigation, strategy, acceptance criteria</text>
</svg>
